<svg width="2048" height="1792" xmlns="http://www.w3.org/2000/svg">

 <g>
  <title>background</title>
  <rect fill="none" id="canvas_background" height="402" width="582" y="-1" x="-1"/>
 </g>
 <g>
  <title>Layer 1</title>
  <path id="svg_1" d="m1344,992q0,-14 -9,-23t-23,-9l-224,0l0,-352q0,-13 -9.5,-22.5t-22.5,-9.5l-192,0q-13,0 -22.5,9.5t-9.5,22.5l0,352l-224,0q-13,0 -22.5,9.5t-9.5,22.5q0,14 9,23l352,352q9,9 23,9t23,-9l351,-351q10,-12 10,-24zm640,224q0,159 -112.5,271.5t-271.5,112.5l-1088,0q-185,0 -316.5,-131.5t-131.5,-316.5q0,-130 70,-240t188,-165q-2,-30 -2,-43q0,-212 150,-362t362,-150q156,0 285.5,87t188.5,231q71,-62 166,-62q106,0 181,75t75,181q0,76 -41,138q130,31 213.5,135.5t83.5,238.5z"/>
 </g>
</svg>